<?xml version="1.0" encoding="UTF-8"?>
<svg xmlns="http://www.w3.org/2000/svg" xmlns:xlink="http://www.w3.org/1999/xlink" width="306pt" height="306pt" viewBox="0 0 306 306" version="1.2">
<g id="surface1">
<path style=" stroke:none;fill-rule:nonzero;fill:rgb(100%,100%,100%);fill-opacity:1;" d="M 214.332031 209.316406 C 214.332031 210.105469 213.691406 210.746094 212.902344 210.746094 L 185.386719 210.746094 C 184.597656 210.746094 183.957031 210.105469 183.957031 209.316406 L 183.957031 149.414062 C 183.957031 148.625 184.597656 147.984375 185.386719 147.984375 L 212.902344 147.984375 C 213.691406 147.984375 214.332031 148.625 214.332031 149.414062 Z M 173.132812 210.746094 L 144.710938 210.746094 C 144.457031 210.746094 144.21875 210.625 144.066406 210.421875 L 124.203125 183.4375 C 123.75 182.828125 122.785156 183.144531 122.785156 183.902344 L 122.785156 209.316406 C 122.785156 210.105469 122.144531 210.746094 121.355469 210.746094 L 93.835938 210.746094 C 93.046875 210.746094 92.410156 210.105469 92.410156 209.316406 L 92.410156 149.414062 C 92.410156 148.625 93.046875 147.984375 93.835938 147.984375 L 121.355469 147.984375 C 122.144531 147.984375 122.785156 148.625 122.785156 149.414062 L 122.785156 170.34375 C 122.785156 171.074219 123.691406 171.410156 124.167969 170.855469 L 143.484375 148.265625 C 143.632812 148.085938 143.859375 147.984375 144.089844 147.984375 L 172.539062 147.984375 C 173.191406 147.984375 173.570312 148.722656 173.191406 149.25 L 152.941406 177.523438 C 152.40625 178.269531 152.402344 179.273438 152.933594 180.019531 L 173.789062 209.480469 C 174.164062 210.011719 173.785156 210.746094 173.132812 210.746094 M 190.046875 114.359375 C 189.367188 113.796875 188.640625 113.257812 187.996094 112.667969 C 187.328125 112.082031 187.097656 111.1875 188.019531 111.1875 C 189.554688 111.355469 191.515625 112.65625 192.976562 113.378906 C 194.179688 113.789062 194.570312 112.078125 194.984375 111.296875 C 195.277344 110.640625 194.902344 110.054688 194.527344 109.535156 C 194.035156 108.875 194.648438 108.367188 195.328125 108.351562 C 196.832031 108.273438 198.9375 108.960938 199.101562 110.617188 C 199.074219 111.175781 198.648438 111.660156 198.285156 112.070312 C 197.53125 112.992188 196.484375 114.132812 196.410156 115.300781 L 196.433594 115.375 C 197.308594 116.578125 199.511719 117.59375 199.609375 119.300781 C 199.9375 120.394531 199.261719 121.71875 198.011719 121.667969 C 196.121094 121.566406 195.382812 118.882812 193.941406 118.214844 C 193.601562 118.160156 193.253906 118.40625 192.964844 118.621094 C 191.988281 119.386719 190.890625 120.109375 189.804688 120.726562 C 188.429688 121.445312 186.402344 122.542969 184.707031 122.710938 C 184.203125 122.714844 184.269531 122.519531 184.601562 122.25 C 186.730469 120.566406 189.0625 118.921875 191.023438 117.054688 C 191.246094 116.828125 191.492188 116.542969 191.546875 116.25 C 191.722656 115.558594 190.726562 114.9375 190.046875 114.359375 M 185.273438 107.59375 C 187.863281 107.558594 190.511719 107.3125 193.128906 106.871094 C 195.855469 106.335938 198.523438 105.59375 201.167969 104.773438 C 202.910156 103.921875 203.589844 103.804688 205.089844 105.261719 L 205.175781 105.351562 C 206.34375 106.53125 205.828125 107.472656 204.917969 108.550781 C 204.195312 109.605469 204.289062 110.867188 204.125 112.136719 C 204.039062 113.015625 203.917969 113.917969 203.992188 114.800781 C 204.222656 117.351562 206.726562 120.347656 209.214844 121.132812 C 209.960938 121.332031 210.902344 121.371094 211.472656 120.777344 C 212.019531 120.269531 211.976562 119.355469 212.335938 118.746094 C 213.195312 117.523438 213.773438 119.046875 213.871094 120.09375 C 214.679688 124.09375 214.960938 126.152344 210.03125 125.078125 C 206.902344 124.171875 204.632812 121.929688 203.042969 119.261719 C 201.105469 116.554688 200.714844 113.1875 201.324219 109.972656 C 201.53125 108.316406 201.6875 107 199.78125 107.269531 C 195.84375 107.671875 191.90625 108.5625 188.011719 109.484375 C 186.90625 109.765625 185.679688 109.980469 184.675781 109.304688 C 183.441406 108.449219 183.902344 107.523438 185.273438 107.59375 M 201.144531 103.941406 C 200.480469 104.027344 199.796875 103.851562 199.125 103.914062 C 197.492188 104.015625 196.15625 104.375 194.5 104.683594 C 193.871094 104.855469 193.097656 104.867188 192.746094 105.492188 C 192.605469 105.683594 192.402344 105.796875 192.164062 105.730469 C 190.851562 105.292969 189.773438 103.210938 190.90625 102.160156 C 191.355469 102 191.90625 102.441406 192.347656 102.511719 C 194.316406 102.730469 196.394531 102.472656 198.269531 101.875 C 199.589844 100.894531 199.984375 101.570312 201.023438 102.457031 L 201.101562 102.523438 C 201.652344 102.945312 202.347656 103.765625 201.144531 103.941406 M 186.65625 102.886719 C 188.234375 101.378906 189.941406 99.121094 190.539062 96.957031 C 190.65625 96.449219 190.132812 95.929688 190.160156 95.351562 C 190.304688 94.347656 191.929688 95 192.441406 95.191406 C 193.160156 95.632812 194.175781 96.257812 194.109375 97.121094 C 194.089844 97.4375 193.449219 97.917969 193.878906 98.128906 C 195.9375 98.425781 198.28125 98.113281 200.195312 97.3125 C 200.917969 96.945312 201.847656 96.722656 202.53125 97.191406 L 202.605469 97.25 C 203.382812 97.9375 203.121094 98.996094 202.296875 99.558594 C 201.46875 100.238281 200.386719 99.96875 199.4375 99.757812 C 197.058594 99.410156 194.421875 100.050781 192.058594 100.496094 C 191.453125 100.867188 191.050781 101.480469 190.535156 101.96875 C 189.273438 103.136719 187.824219 104.179688 186.148438 104.601562 C 184.410156 104.75 186.097656 103.289062 186.65625 102.886719 M 222.0625 83.769531 L 84.679688 83.769531 C 82.851562 83.769531 81.371094 85.414062 81.371094 87.4375 L 81.371094 218.113281 C 81.371094 220.140625 82.851562 221.785156 84.679688 221.785156 L 222.0625 221.785156 C 223.886719 221.785156 225.371094 220.140625 225.371094 218.113281 L 225.371094 87.4375 C 225.371094 85.414062 223.886719 83.769531 222.0625 83.769531 "/>
</g>
</svg>
